<svg width="66" height="67" viewBox="0 0 66 67" fill="none" xmlns="http://www.w3.org/2000/svg">
<rect x="0.197754" y="0.866455" width="65.605" height="65.6052" rx="32.8025" fill="#A8F45B"/>
<path d="M48.725 47.9611H17.3262C16.2216 47.9611 15.3262 47.0657 15.3262 45.9611V26.1564C15.3262 25.0518 16.2216 24.1564 17.3262 24.1564H22.4226C22.953 24.1564 23.4617 23.9457 23.8368 23.5706L27.4446 19.9627C27.8197 19.5877 28.3284 19.377 28.8588 19.377H37.4701C38.0005 19.377 38.5092 19.5877 38.8843 19.9627L42.4921 23.5706C42.8672 23.9457 43.3759 24.1564 43.9064 24.1564H48.725C49.8296 24.1564 50.725 25.0518 50.725 26.1564V45.9611C50.725 47.0657 49.8296 47.9611 48.725 47.9611Z" fill="#1A1A21" stroke="#1A1A21"/>
<circle cx="32.9998" cy="35.6956" r="9.54819" fill="#A8F45B"/>
<circle cx="33.0002" cy="35.6956" r="7.85229" fill="#1A1A21"/>
<circle cx="32.9997" cy="35.6957" r="4.69888" fill="#A8F45B" stroke="#A8F45B" stroke-width="2"/>
<path d="M29.8599 21.7791L36.14 21.7791" stroke="#A8F45B" stroke-width="2" stroke-linecap="round"/>
<rect x="28.8555" y="20.769" width="8.28857" height="2.03223" rx="1.01611" fill="#A8F45B"/>
</svg>
