<svg width="26" height="27" viewBox="0 0 26 27" fill="none" xmlns="http://www.w3.org/2000/svg">
<path d="M13.8058 0.563764L24.121 6.55141C24.6736 6.87214 25.0136 7.46272 25.0136 8.10159L25.0136 24.6826C25.0136 25.6725 24.2111 26.475 23.2212 26.475H18.9615C17.9716 26.475 17.1691 25.6725 17.1691 24.6826L17.1691 18.7415C17.1691 17.7515 16.3666 16.9491 15.3767 16.9491H10.5193C9.52941 16.9491 8.72693 17.7515 8.72693 18.7415V24.6826C8.72693 25.6725 7.92444 26.475 6.93452 26.475L2.66547 26.475C1.67556 26.475 0.873069 25.6725 0.873067 24.6826L0.873047 8.09808C0.873045 7.46107 1.21114 6.87192 1.76113 6.55053L12.0016 0.566389C12.5587 0.240856 13.2477 0.239853 13.8058 0.563764Z" fill="#8C8D86"/>
</svg>
