<svg width="29" height="27" viewBox="0 0 29 27" fill="none" xmlns="http://www.w3.org/2000/svg">
<path d="M27.5676 0.999039L21.3176 3.96325C20.9686 4.12877 20.7461 4.48051 20.7461 4.86678V25.6978C20.7461 26.0616 21.1223 26.3036 21.4534 26.1528L28.4107 22.9836C28.7673 22.8212 28.9961 22.4655 28.9961 22.0736V1.90257C28.9961 1.16825 28.2311 0.684368 27.5676 0.999039Z" fill="#8C8D86"/>
<path d="M11.1434 0.660286L18.1077 3.96325C18.4567 4.12877 18.6792 4.48051 18.6792 4.86678V25.6978C18.6792 26.0616 18.303 26.3036 17.9719 26.1528L11.0146 22.9836C10.658 22.8212 10.4292 22.4655 10.4292 22.0736V1.11205C10.4292 0.744891 10.8117 0.50295 11.1434 0.660286Z" fill="#8C8D86"/>
<path d="M7.64807 0.660286L0.683785 3.96325C0.334774 4.12877 0.112305 4.48051 0.112305 4.86678V24.9206C0.112305 25.6482 0.864665 26.1323 1.52684 25.8306L7.77687 22.9836C8.13346 22.8212 8.36233 22.4655 8.36233 22.0736V1.11205C8.36233 0.744891 7.97981 0.50295 7.64807 0.660286Z" fill="#8C8D86"/>
</svg>
