<svg width="27" height="27" viewBox="0 0 27 27" fill="none" xmlns="http://www.w3.org/2000/svg">
<path fill-rule="evenodd" clip-rule="evenodd" d="M19.2773 2.04041L16.2013 2.73854L14.1041 0.65779C13.7272 0.283874 13.1239 0.26963 12.7298 0.625345L10.3655 2.75936L7.68588 2.05267C7.17253 1.91728 6.64288 2.20663 6.47943 2.71174L5.58183 5.48573L2.81859 6.41243C2.32256 6.57878 2.03859 7.09936 2.16727 7.60648L2.85982 10.3359L0.789648 12.6791C0.443248 13.0712 0.457619 13.664 0.822611 14.0388L2.83842 16.109L2.14827 18.829C2.0277 19.3042 2.26939 19.7967 2.71903 19.9921L5.71987 21.2961L6.41742 23.7673C6.5506 24.2391 7.00618 24.5448 7.49326 24.4892L10.4566 24.1509L12.8384 26.1027C13.2065 26.4044 13.7363 26.4047 14.1049 26.1036L16.3853 24.2404L19.3121 24.7215C19.7818 24.7986 20.2408 24.5341 20.4095 24.089L21.4755 21.275L24.3814 20.0947C24.8311 19.912 25.0847 19.4328 24.9828 18.9582L24.3914 16.2052L26.3047 13.7469C26.6029 13.3638 26.5829 12.822 26.2573 12.4619L24.3144 10.3134L24.835 7.58559C24.9305 7.0855 24.635 6.59353 24.1487 6.44288L21.4607 5.61015L20.443 2.68685C20.2757 2.20603 19.7738 1.92772 19.2773 2.04041ZM19.415 11.3914C20.0496 10.859 20.1324 9.91282 19.5999 9.2782C19.0674 8.64358 18.1213 8.56079 17.4867 9.09329L11.1558 14.4054L9.58738 12.8892C8.99176 12.3134 8.04214 12.3295 7.46637 12.9251C6.89059 13.5208 6.90668 14.4704 7.50231 15.0462L10.0423 17.5015L11.0138 18.4407L12.049 17.5721L19.415 11.3914Z" fill="#8C8D86"/>
</svg>
