<svg width="32" height="27" viewBox="0 0 32 27" fill="none" xmlns="http://www.w3.org/2000/svg">
<path d="M13.4986 6.04697H7.52882C6.58751 6.04697 5.82013 6.79157 5.78352 7.72392C5.78128 7.76011 5.78015 7.79641 5.78015 7.83319V13.7959C5.78015 13.9633 5.55129 14.0477 5.42509 13.9377C3.83336 12.5503 0.298727 12.6588 0.0546875 16.2026C0.26905 19.9682 3.87954 19.8851 5.39194 18.4878C5.52053 18.3689 5.78015 18.456 5.78015 18.6311V24.6009C5.78015 24.6291 5.78082 24.6571 5.78214 24.6849C5.80222 25.6321 6.57637 26.3939 7.5284 26.3939H13.3037C13.486 26.3939 13.5819 26.0916 13.46 25.956C12.454 24.8365 12.2646 22.4754 14.5738 21.4218C15.3177 21.0825 16.1947 21.082 16.9353 21.4285C19.2571 22.5152 18.696 24.9121 18.0902 25.9443C18.0023 26.094 18.1339 26.3939 18.3074 26.3939H24.2961C25.1347 26.3939 25.8351 25.8031 26.004 25.015C26.0362 24.8823 26.0533 24.7437 26.0533 24.6011V18.6384C26.0533 18.4711 26.2822 18.3866 26.4084 18.4966C28.0001 19.884 31.5348 19.7755 31.7788 16.2318C31.5644 12.4662 27.9539 12.5492 26.4415 13.9466C26.3129 14.0654 26.0533 13.9783 26.0533 13.8032V7.8334C26.0533 7.67733 26.0329 7.52616 25.9945 7.38218C25.8095 6.6161 25.1195 6.04697 24.2966 6.04697H18.3339C18.1665 6.04697 18.082 5.81814 18.192 5.69191C19.5794 4.1002 19.4709 0.565559 15.9272 0.321533C12.1616 0.535869 12.2446 4.14642 13.642 5.65876C13.7608 5.78738 13.6737 6.04697 13.4986 6.04697Z" fill="#8C8D86"/>
</svg>
